<svg width="40" height="40" viewBox="0 0 40 40" fill="none" xmlns="http://www.w3.org/2000/svg">
<mask id="mask0_653_6497" style="mask-type:luminance" maskUnits="userSpaceOnUse" x="3" y="10" width="33" height="28">
<path fill-rule="evenodd" clip-rule="evenodd" d="M3.33398 10.9004H35.9771V37.8697H3.33398V10.9004Z" fill="white"/>
</mask>
<g mask="url(#mask0_653_6497)">
<path fill-rule="evenodd" clip-rule="evenodd" d="M11.1932 13.4004C10.4582 13.4004 8.00154 13.6971 7.29654 17.5037L6.00987 27.5037C5.59154 30.3087 5.91487 32.3387 6.9732 33.5671C8.0182 34.7804 9.8882 35.3704 12.6882 35.3704H26.6015C28.3482 35.3704 30.7332 35.0221 32.1732 33.3587C33.3165 32.0404 33.7099 30.0771 33.3432 27.5221L32.0449 17.4354C31.4915 14.9504 30.0315 13.4004 28.1582 13.4004H11.1932ZM26.6015 37.8704H12.6882C9.11654 37.8704 6.6282 36.9954 5.07987 35.1971C3.52487 33.3937 3.00487 30.6887 3.53487 27.1587L4.8282 17.1154C5.6782 12.5104 8.78654 10.9004 11.1932 10.9004H28.1582C30.5749 10.9004 33.5132 12.5054 34.5049 17.0071L35.8199 27.1854C36.2915 30.4704 35.7015 33.1054 34.0632 34.9954C32.4332 36.8754 29.8532 37.8704 26.6015 37.8704Z" fill="#5F5B00"/>
</g>
<path fill-rule="evenodd" clip-rule="evenodd" d="M26.8301 13.034C26.1401 13.034 25.5801 12.474 25.5801 11.784C25.5801 8.50232 22.9101 5.83398 19.6301 5.83398H19.6051C18.0368 5.83398 16.5084 6.46565 15.4001 7.56732C14.2868 8.67565 13.6484 10.214 13.6484 11.784C13.6484 12.474 13.0884 13.034 12.3984 13.034C11.7084 13.034 11.1484 12.474 11.1484 11.784C11.1484 9.55232 12.0551 7.37065 13.6351 5.79565C15.2101 4.23065 17.3818 3.33398 19.6001 3.33398H19.6351C24.2901 3.33398 28.0801 7.12398 28.0801 11.784C28.0801 12.474 27.5201 13.034 26.8301 13.034Z" fill="#5F5B00"/>
<path fill-rule="evenodd" clip-rule="evenodd" d="M24.5728 20.541H24.4961C23.8061 20.541 23.2461 19.981 23.2461 19.291C23.2461 18.601 23.8061 18.041 24.4961 18.041C25.1861 18.041 25.7844 18.601 25.7844 19.291C25.7844 19.981 25.2628 20.541 24.5728 20.541Z" fill="#5F5B00"/>
<path fill-rule="evenodd" clip-rule="evenodd" d="M14.8543 20.541H14.7793C14.0893 20.541 13.5293 19.981 13.5293 19.291C13.5293 18.601 14.0893 18.041 14.7793 18.041C15.4693 18.041 16.0676 18.601 16.0676 19.291C16.0676 19.981 15.5443 20.541 14.8543 20.541Z" fill="#5F5B00"/>
</svg>
