<svg width="50" height="50" viewBox="0 0 50 50" fill="none" xmlns="http://www.w3.org/2000/svg">
<path fill-rule="evenodd" clip-rule="evenodd" d="M44.769 13.8837C43.942 12.9079 42.7399 12.3466 41.4754 12.3466H19.0905C18.2281 12.3466 17.5281 13.0609 17.5281 13.9411C17.5281 14.8212 18.2281 15.5356 19.0905 15.5356H41.4754C41.965 15.5356 42.2691 15.8077 42.4066 15.9693C42.5441 16.133 42.7649 16.4795 42.6941 16.9727L40.7171 30.9169C40.5608 32.0097 39.6275 32.8345 38.5442 32.8345H15.8135C14.6615 32.8345 13.7219 31.9523 13.6261 30.783L11.6199 6.39391C11.5616 5.67109 11.0303 5.07794 10.3303 4.95464L5.99502 4.18716C5.13463 4.04685 4.33465 4.61873 4.18882 5.48825C4.04299 6.35565 4.61173 7.18052 5.4617 7.33146L8.60746 7.88634L10.5116 31.0487C10.7449 33.8848 13.024 36.0235 15.8135 36.0235H38.5442C41.1712 36.0235 43.4337 34.0251 43.8087 31.374L45.7878 17.4298C45.969 16.15 45.5961 14.8595 44.769 13.8837ZM12.3076 42.614C12.3076 40.8388 13.7242 39.3931 15.4637 39.3931C17.2033 39.3931 18.6178 40.8388 18.6178 42.614C18.6178 44.3891 17.2033 45.8327 15.4637 45.8327C13.7242 45.8327 12.3076 44.3891 12.3076 42.614ZM35.7507 42.614C35.7507 40.8388 37.1653 39.3931 38.9048 39.3931C40.6444 39.3931 42.061 40.8388 42.061 42.614C42.061 44.3891 40.6444 45.8327 38.9048 45.8327C37.1653 45.8327 35.7507 44.3891 35.7507 42.614ZM36.7676 21.7999C36.7676 22.6801 36.0676 23.3944 35.2051 23.3944H29.4282C28.5636 23.3944 27.8657 22.6801 27.8657 21.7999C27.8657 20.9198 28.5636 20.2055 29.4282 20.2055H35.2051C36.0676 20.2055 36.7676 20.9198 36.7676 21.7999Z" fill="#5F5B00"/>
</svg>
